<?xml version="1.0" encoding="UTF-8"?> <svg xmlns="http://www.w3.org/2000/svg" width="500" height="334" viewBox="0 0 500 334" fill="none"><g clip-path="url(#clip0)"><path opacity="0.1" d="M296.293 53.6491C265.124 52.5655 235.439 42.5051 207.088 31.4959C178.737 20.4868 150.665 8.28815 120.243 2.4561C100.676 -1.29548 78.3014 -1.82523 62.5342 8.66379C47.3642 18.7772 42.4616 36.1866 39.8225 52.3536C37.8431 64.5233 36.6729 77.324 42.11 88.7136C45.8809 96.6213 52.5798 103.267 57.2126 110.843C73.3266 137.195 61.937 169.693 44.4698 195.424C36.2828 207.493 26.7762 219.022 20.453 231.861C14.1297 244.7 11.2065 259.432 16.7351 272.541C22.2204 285.544 35.2859 295.291 49.435 302.154C78.181 316.091 112.042 320.084 145.088 322.342C218.203 327.346 291.713 325.179 365.02 323.012C392.153 322.207 419.401 321.393 446.091 317.199C460.914 314.868 476.219 311.169 486.978 302.27C500.635 290.938 504.021 271.746 494.871 257.54C479.518 233.706 437.08 227.782 426.336 202.205C420.427 188.128 426.495 172.443 435.077 159.387C453.493 131.373 484.358 106.802 485.986 74.7812C487.103 52.7918 472.265 30.7687 449.322 20.3616C425.272 9.4536 391.926 10.8261 374.194 28.8809C355.913 47.451 323.811 54.6026 296.293 53.6491Z" fill="#18A558"></path><path d="M216.103 313.751C215.622 312.007 215.14 310.245 214.177 308.728C213.284 307.441 212.223 306.28 211.022 305.275C207.531 302.106 203.245 298.889 198.617 299.688C197.185 300.005 195.802 300.51 194.504 301.191C193.83 301.504 193.151 301.817 192.457 302.082C190.505 302.898 188.347 303.086 186.283 302.621C185.224 302.337 184.236 301.826 183.191 301.509C182.695 301.359 182.188 301.25 181.674 301.181C182.684 300.729 183.664 300.213 184.607 299.635C189.799 296.457 193.94 290.711 193.363 284.566C193.165 282.5 192.457 280.521 191.754 278.57L189.905 273.456C189.105 271.241 188.277 268.982 186.818 267.142C185.195 265.091 182.883 263.699 180.495 262.664C175.366 260.434 169.76 259.649 164.226 258.888L163.841 258.835V199.055C163.841 198.033 163.435 197.053 162.713 196.331C161.99 195.608 161.01 195.203 159.988 195.203H152.716C152.395 193.238 152.074 191.276 151.753 189.317C150.838 183.726 149.89 178.034 147.313 173.001C145.628 169.707 142.945 166.562 139.328 165.917C138.618 165.853 137.919 165.691 137.253 165.435C136.193 164.915 135.615 163.76 134.801 162.907C132.702 160.706 129.287 160.673 126.475 159.536C123.99 158.549 121.957 156.69 119.694 155.259C117.43 153.829 114.618 152.813 112.114 153.742C112.114 153.925 112.08 154.108 112.061 154.287L110.452 153.545C108.719 152.741 106.951 151.917 105.559 150.598C103.773 148.912 102.819 146.678 102.077 144.303C102 144.058 101.928 143.822 101.851 143.557C104.929 140.416 107.013 136.438 107.842 132.119L108.232 133.386C108.32 133.67 108.423 133.95 108.54 134.224C108.739 134.753 109.071 135.222 109.504 135.587C109.627 135.683 109.763 135.763 109.908 135.823C110.041 135.875 110.18 135.911 110.322 135.928C110.522 135.953 110.725 135.938 110.919 135.885C111.245 135.784 111.544 135.612 111.794 135.38C112.044 135.148 112.239 134.863 112.364 134.546C112.441 134.357 112.497 134.16 112.533 133.959C112.551 133.838 112.563 133.715 112.566 133.593C112.566 133.554 112.566 133.516 112.566 133.477C112.566 133.439 112.566 133.309 112.566 133.227C112.566 133.145 112.566 133.14 112.566 133.092C112.566 133.044 112.566 132.933 112.542 132.851V132.726C112.542 132.63 112.513 132.533 112.494 132.442C112.475 132.35 112.494 132.389 112.494 132.365C112.47 132.244 112.441 132.119 112.417 131.999C112.417 131.97 112.417 131.936 112.417 131.907C112.417 131.878 112.374 131.71 112.35 131.609C112.326 131.507 112.316 131.479 112.302 131.411V131.382C112.253 131.19 112.21 131.002 112.167 130.809C111.817 129.138 111.727 127.422 111.902 125.724C112.19 123.231 112.65 120.761 113.279 118.331L113.38 117.893C113.419 117.724 113.457 117.556 113.491 117.382C113.568 117.036 113.645 116.689 113.717 116.337L113.891 115.451L114.021 114.661V114.56C114.291 112.771 114.348 110.955 114.189 109.152C113.968 106.633 113.188 104.25 111.478 102.352C110.269 101.008 108.675 100.016 107.553 98.6053C106.503 97.2857 105.911 95.658 104.822 94.3625C101.817 90.7746 94.1023 88.0103 89.3683 87.5287C83.9456 86.9797 75.1855 88.3667 70.8127 91.5693C69.1946 92.7491 68.0869 94.4588 66.96 96.0769C64.8892 99.0869 62.539 102.092 59.2209 103.782C57.9687 104.418 56.5336 104.9 55.7005 106.007C55.2048 106.758 54.8839 107.611 54.7614 108.502C54.1233 111.638 53.7911 114.828 53.7693 118.028C53.7693 118.428 53.7693 118.827 53.7693 119.232C53.7792 120.432 54.0349 121.617 54.5206 122.714C54.5976 122.877 54.6843 123.036 54.7758 123.195L54.8336 123.296C55.4161 124.129 55.9314 125.007 56.3747 125.921C56.4851 126.177 56.5643 126.446 56.6107 126.72C56.6932 127.426 56.6475 128.141 56.4758 128.83C56.4758 128.936 56.4325 129.042 56.4132 129.148L56.3699 129.355C56.3699 129.427 56.3699 129.499 56.3313 129.567C56.2928 129.774 56.2591 129.981 56.2302 130.183C56.1572 130.74 56.1932 131.306 56.3362 131.849C56.4021 132.152 56.5315 132.437 56.7158 132.686C56.9001 132.935 57.1351 133.143 57.4053 133.294C57.6796 133.426 57.9716 133.517 58.2721 133.564C58.5755 133.617 58.8838 133.651 59.1823 133.718C59.5663 133.806 59.9371 133.943 60.2852 134.127C60.6187 134.287 60.9309 134.488 61.2147 134.724C61.355 134.852 61.4885 134.987 61.6144 135.129C61.8687 135.42 62.0975 135.733 62.2982 136.063C62.401 136.233 62.4973 136.407 62.5872 136.583C62.9323 137.28 63.2081 138.009 63.4107 138.76C63.5359 139.208 63.6419 139.661 63.7334 140.113C63.7767 140.316 63.8152 140.518 63.8489 140.715C63.8827 140.913 63.9164 141.115 63.9453 141.313C64.0767 141.305 64.2064 141.279 64.3305 141.236C65.0385 140.98 65.4334 140.157 65.6549 139.357C65.6934 139.223 65.7271 139.093 65.756 138.962C65.8668 138.481 65.9824 137.951 66.0931 137.445C67.9915 141.477 71.0523 144.848 74.8821 147.125C75.017 147.525 75.147 147.92 75.2626 148.325C75.8935 150.506 76.1969 152.789 75.1037 154.696C74.3235 156.049 73.0136 156.882 71.5495 157.46C71.3385 157.179 71.0669 156.949 70.7549 156.786C69.4883 156.15 67.9665 156.921 66.9022 157.87C64.9759 159.613 63.4059 162.112 60.8727 162.686C59.9577 162.897 58.9464 162.854 58.1855 163.413C57.6822 163.886 57.2607 164.439 56.9381 165.05C56.3885 165.84 55.6493 166.478 54.7884 166.907C53.9276 167.336 52.9727 167.542 52.0115 167.506C51.1302 167.463 50.0851 167.261 49.4832 167.906C49.0353 168.388 49.0016 169.149 48.52 169.606C47.8746 170.242 46.8151 169.934 45.9146 169.895C44.2001 169.823 42.6061 170.93 41.6284 172.351C40.6508 173.772 40.1837 175.472 39.7021 177.167V177.196C39.5785 177.286 39.4611 177.384 39.3505 177.49C38.8836 177.987 38.5216 178.573 38.2862 179.214C34.3916 188.081 32.0928 197.566 31.4958 207.233C31.5053 207.704 31.3995 208.17 31.1876 208.591C30.9721 208.866 30.7354 209.123 30.4797 209.361C30.2508 209.641 30.0806 209.965 29.979 210.312C29.8774 210.659 29.8466 211.023 29.8884 211.382C29.9302 211.742 30.0437 212.089 30.2222 212.404C30.4007 212.718 30.6405 212.994 30.9275 213.214C31.0661 212.963 31.2396 212.733 31.4428 212.53C31.3899 212.752 31.3417 212.968 31.308 213.166C31.1146 214.571 31.0968 215.994 31.255 217.404C31.7109 224.095 32.1716 230.781 32.6372 237.462C32.7672 239.355 32.8972 241.242 33.0706 243.13C33.4077 246.784 33.8893 250.423 34.5154 254.048C34.5443 254.212 34.578 254.38 34.6213 254.53C30.6964 255.777 27.2049 258.031 25.736 261.792C25.2255 263.092 24.9944 264.508 24.3683 265.755C23.6796 267.123 22.5479 268.216 21.7966 269.555C20.5012 271.857 20.4434 274.679 20.9153 277.261C21.8255 282.293 24.5465 286.791 28.1391 290.451C27.9802 290.451 27.8165 290.451 27.6576 290.451C26.4838 290.581 25.3571 290.985 24.3683 291.631C16.7688 296.071 12.4249 305.597 14.0093 314.295C14.3224 315.995 14.8666 317.719 16.0031 319.014C16.9478 320.044 18.1625 320.788 19.5091 321.162C20.3512 321.416 21.2183 321.577 22.0952 321.644C28.0187 322.125 33.7545 319.38 39.6925 319.149C41.6595 319.118 43.6266 319.21 45.5823 319.424C48.4429 319.661 51.3084 319.812 54.1786 319.876C58.8452 319.987 61.4699 318.745 64.4461 315.258C65.1776 314.391 65.7884 313.428 66.2617 312.397C68.7949 312.253 71.5929 312.031 73.6156 311.868L73.6445 312.147C73.7552 313.11 73.9238 314.218 74.6943 314.825C75.1278 315.123 75.6205 315.326 76.1391 315.417C81.0031 316.611 85.925 317.825 90.9335 317.825C93.2839 317.777 95.6297 317.597 97.9599 317.285L106.758 316.269C109.322 316.594 111.853 317.145 114.319 317.916C116.862 318.778 119.236 320.059 121.721 321.076C127.501 323.416 133.713 324.254 139.868 325.073C140.918 325.212 142.122 325.309 142.897 324.591C143.899 323.628 143.566 322.019 143.282 320.671C143.167 320.117 143.08 319.563 143.012 319.005C147.166 320.1 151.229 321.51 155.168 323.223L155.856 323.527C156.059 324.577 157.027 325.415 157.956 326.546C158.261 327.024 158.618 327.467 159.02 327.866C159.48 328.164 160.003 328.352 160.547 328.415C167.044 329.626 173.679 329.925 180.259 329.306C181.605 329.122 182.967 329.076 184.323 329.166C185.319 329.302 186.302 329.523 187.261 329.826L192.833 331.425C196.941 332.6 201.145 333.79 205.407 333.525C206.271 333.47 207.13 333.346 207.974 333.154C211.345 332.374 214.485 330.491 216.103 327.461C218.391 323.344 217.336 318.278 216.103 313.751Z" fill="url(#paint0_linear)"></path><path d="M60.2083 312.812C59.1921 310.5 58.229 307.842 59.2451 305.53C59.9084 304.169 61.0478 303.098 62.4477 302.52C63.8329 301.955 65.293 301.595 66.782 301.451C71.4556 300.838 76.1848 300.774 80.8733 301.259C81.2153 303.965 80.4929 306.71 79.8716 309.325C79.3082 311.733 78.9855 312.089 76.5005 312.215C74.892 312.301 60.5888 313.664 60.2083 312.812Z" fill="#FDD6D6"></path><path d="M103.094 297.218C141.128 297.218 171.961 288.593 171.961 277.954C171.961 267.315 141.128 258.69 103.094 258.69C65.0595 258.69 34.2266 267.315 34.2266 277.954C34.2266 288.593 65.0595 297.218 103.094 297.218Z" fill="#464353"></path><path opacity="0.1" d="M103.094 297.218C141.128 297.218 171.961 288.593 171.961 277.954C171.961 267.315 141.128 258.69 103.094 258.69C65.0595 258.69 34.2266 267.315 34.2266 277.954C34.2266 288.593 65.0595 297.218 103.094 297.218Z" fill="black"></path><path d="M115.442 176.262C113.081 180.823 109.16 184.385 104.394 186.298C101.58 187.323 98.6183 187.886 95.6242 187.964C92.3542 188.113 89.0168 187.902 85.9443 186.784C81.8219 185.291 78.3978 182.238 75.8309 178.679C73.2641 175.12 71.4966 171.056 69.9604 166.957C69.1513 164.824 68.3807 162.551 68.7612 160.297C71.2414 159.733 73.9575 158.905 75.2386 156.704C76.3318 154.816 76.0284 152.553 75.3975 150.395C75.2193 149.784 75.0122 149.177 74.8051 148.594C74.3235 147.198 72.6621 144.544 73.842 143.35C74.5788 142.594 77.6658 142.208 78.7301 141.717C82.0097 140.205 85.0341 138.019 88.6364 137.301C91.7522 136.68 94.9693 137.263 98.0803 137.908C98.493 137.968 98.8893 138.11 99.2458 138.327C99.6522 138.669 99.9528 139.12 100.113 139.627C100.999 141.785 101.519 144.169 102.232 146.418C102.973 148.772 103.927 150.983 105.714 152.654C107.105 153.959 108.878 154.778 110.611 155.573L114.878 157.528C115.637 157.812 116.326 158.257 116.896 158.833C117.454 159.6 117.787 160.507 117.859 161.453C118.624 166.52 117.778 171.7 115.442 176.262Z" fill="#FDD6D6"></path><path opacity="0.1" d="M102.213 146.417C98.8147 149.955 94.3388 152.265 89.4868 152.985C84.6348 153.705 79.6811 152.794 75.4025 150.395C75.2243 149.784 75.0172 149.177 74.8101 148.594C74.3285 147.198 72.667 144.544 73.8469 143.35C74.5838 142.594 77.6707 142.208 78.7351 141.717C82.0147 140.205 85.0391 138.019 88.6414 137.301C91.7572 136.68 94.9742 137.263 98.0853 137.908C98.498 137.968 98.8943 138.11 99.2508 138.327C99.6572 138.669 99.9578 139.12 100.118 139.627C100.98 141.785 101.5 144.168 102.213 146.417Z" fill="black"></path><path d="M86.2381 152.259C98.4729 152.259 108.391 142.341 108.391 130.106C108.391 117.871 98.4729 107.953 86.2381 107.953C74.0032 107.953 64.085 117.871 64.085 130.106C64.085 142.341 74.0032 152.259 86.2381 152.259Z" fill="#FDD6D6"></path><path d="M153.733 202.003L151.912 190.974C150.993 185.441 150.044 179.801 147.472 174.817C145.782 171.552 143.099 168.441 139.483 167.795C138.77 167.732 138.07 167.57 137.402 167.314C136.343 166.803 135.765 165.657 134.951 164.81C132.851 162.633 129.432 162.599 126.619 161.491C124.134 160.528 122.102 158.674 119.839 157.258C117.575 155.842 114.758 154.85 112.254 155.756C111.849 160.066 111.421 164.472 109.59 168.397C108.399 170.953 106.652 173.209 104.477 175.002C102.301 176.795 99.7526 178.079 97.017 178.761C94.2814 179.442 91.4281 179.504 88.6658 178.94C85.9035 178.377 83.302 177.204 81.0515 175.506C76.7606 172.274 74.0107 167.29 72.7297 162.074C72.4166 160.803 72.0602 159.343 70.89 158.761C69.6234 158.125 68.1016 158.896 67.0373 159.83C65.1109 161.559 63.5361 164.034 61.003 164.617C60.0879 164.829 59.0766 164.785 58.3157 165.339C57.81 165.806 57.3867 166.355 57.0636 166.962C56.5092 167.745 55.7686 168.378 54.9085 168.804C54.0484 169.229 53.0959 169.434 52.1369 169.399C51.2556 169.356 50.2106 169.153 49.6086 169.794C49.1607 170.276 49.127 171.027 48.6454 171.475C47.9952 172.106 46.9406 171.797 46.0352 171.764C44.3207 171.691 42.7267 172.789 41.7442 174.172C40.7618 175.554 40.2995 177.263 39.8179 178.92C45.0816 190.642 49.8975 202.378 55.1613 214.1C55.4079 214.542 55.5388 215.039 55.5417 215.545C55.4362 216.07 55.2122 216.564 54.8868 216.99C52.3055 221.136 52.3873 226.352 52.6715 231.225C52.9556 236.099 53.3024 241.247 51.1256 245.615C50.5332 246.814 49.7627 247.912 49.1992 249.112C47.8797 251.828 47.4029 260.516 48.1734 263.434H157.051C154.975 257.727 155.765 246.275 156.199 240.217C156.502 235.979 155.717 231.746 155.38 227.508C154.643 218.853 155.163 210.642 153.733 202.003Z" fill="#656691"></path><path d="M31.4765 214.62C31.2839 216.014 31.2645 217.426 31.4187 218.824L32.8009 238.7C32.9309 240.573 33.061 242.442 33.2343 244.31C33.5666 247.937 34.0627 251.534 34.6791 255.127C34.693 255.637 34.9087 256.121 35.2789 256.472C35.6491 256.823 36.1435 257.013 36.6536 257C42.7457 258.291 49.0401 258.238 55.2574 257.886C64.7447 257.356 74.2175 256.148 83.7193 256.355C86.1658 256.408 89.0168 256.355 90.5001 254.428C91.9834 252.502 91.1213 249.386 89.1853 247.831C87.2493 246.275 84.6199 245.904 82.1349 245.904C78.8456 245.871 75.5564 246.338 72.2767 246.145C69.2668 245.967 66.3243 245.24 63.4059 244.512L55.2189 242.475C55.5319 239.995 56.4758 237.659 57.3716 235.304C58.9801 231.129 60.4826 226.814 60.5115 222.34C60.5404 217.866 58.8549 213.161 55.19 210.599C52.1752 208.494 48.2936 208.104 44.6191 208.191C41.9463 208.268 37.3278 207.627 34.8862 208.673C32.955 209.52 31.8377 212.728 31.4765 214.62Z" fill="#FDD6D6"></path><path d="M159.305 260.063C160.908 259.451 162.676 259.673 164.395 259.904C169.929 260.66 175.544 261.435 180.673 263.646C183.081 264.676 185.373 266.054 187.001 268.081C188.446 269.907 189.288 272.141 190.088 274.342L191.937 279.408C192.64 281.335 193.353 283.3 193.551 285.346C194.128 291.41 189.982 297.126 184.766 300.276C179.551 303.425 173.41 304.547 167.429 305.722C161.448 306.897 155.442 308.198 149.485 309.575C146.707 310.296 143.887 310.851 141.043 311.237C134.667 311.959 128.001 310.895 121.943 313.004C119.535 313.847 117.17 315.099 114.671 315.682C113.011 316.031 111.332 316.287 109.643 316.447L98.1766 317.757C95.8449 318.069 93.4974 318.249 91.1454 318.297C86.1369 318.297 81.2102 317.112 76.3461 315.927C75.829 315.837 75.3368 315.638 74.9014 315.345C74.1308 314.738 73.9623 313.664 73.8515 312.691C73.3603 308.386 72.9301 304.075 72.5609 299.76C72.4453 298.359 72.3586 296.842 73.1243 295.662C74.0875 294.217 75.9657 293.765 77.6802 293.485C84.95 292.296 92.3147 291.785 99.6791 291.959C102.477 289.161 107.091 289.146 110.756 287.624C112.104 287.005 113.409 286.296 114.661 285.5C121.217 281.676 128.543 279.361 136.107 278.724C137.588 278.679 139.059 278.469 140.494 278.098C143.33 277.217 145.917 274.819 148.83 275.406C149.191 274.409 149.442 273.075 150.275 272.392C150.689 272.04 151.2 271.804 151.58 271.428C152.384 270.615 152.457 269.333 152.336 268.197C152.216 267.06 151.946 265.895 152.24 264.787C152.362 264.368 152.542 263.968 152.774 263.598C154.219 261.103 156.401 259.822 159.305 260.063Z" fill="#464353"></path><path opacity="0.05" d="M159.305 260.063C160.908 259.451 162.676 259.673 164.395 259.904C169.929 260.66 175.544 261.435 180.673 263.646C183.081 264.676 185.373 266.054 187.001 268.081C188.446 269.907 189.288 272.141 190.088 274.342L191.937 279.408C192.64 281.335 193.353 283.3 193.551 285.346C194.128 291.41 189.982 297.126 184.766 300.276C179.551 303.425 173.41 304.547 167.429 305.722C161.448 306.897 155.442 308.198 149.485 309.575C146.707 310.296 143.887 310.851 141.043 311.237C134.667 311.959 128.001 310.895 121.943 313.004C119.535 313.847 117.17 315.099 114.671 315.682C113.011 316.031 111.332 316.287 109.643 316.447L98.1766 317.757C95.8449 318.069 93.4974 318.249 91.1454 318.297C86.1369 318.297 81.2102 317.112 76.3461 315.927C75.829 315.837 75.3368 315.638 74.9014 315.345C74.1308 314.738 73.9623 313.664 73.8515 312.691C73.3603 308.386 72.9301 304.075 72.5609 299.76C72.4453 298.359 72.3586 296.842 73.1243 295.662C74.0875 294.217 75.9657 293.765 77.6802 293.485C84.95 292.296 92.3147 291.785 99.6791 291.959C102.477 289.161 107.091 289.146 110.756 287.624C112.104 287.005 113.409 286.296 114.661 285.5C121.217 281.676 128.543 279.361 136.107 278.724C137.588 278.679 139.059 278.469 140.494 278.098C143.33 277.217 145.917 274.819 148.83 275.406C149.191 274.409 149.442 273.075 150.275 272.392C150.689 272.04 151.2 271.804 151.58 271.428C152.384 270.615 152.457 269.333 152.336 268.197C152.216 267.06 151.946 265.895 152.24 264.787C152.362 264.368 152.542 263.968 152.774 263.598C154.219 261.103 156.401 259.822 159.305 260.063Z" fill="black"></path><path d="M64.6388 315.788C61.6578 319.241 59.0331 320.473 54.3665 320.363C51.4963 320.295 48.6292 320.146 45.7654 319.915C43.8079 319.703 41.8394 319.611 39.8707 319.64C33.9279 319.871 28.1922 322.592 22.2638 322.116C21.3872 322.047 20.5204 321.885 19.6777 321.634C18.3328 321.264 17.1173 320.527 16.1669 319.505C15.0304 318.22 14.4862 316.515 14.1731 314.829C12.5887 306.19 16.9326 296.779 24.5369 292.382C25.5291 291.742 26.657 291.341 27.831 291.212C28.9823 291.207 30.1203 291.457 31.1636 291.944L31.2358 291.973C34.3253 293.244 37.1312 295.117 39.4903 297.482C39.8482 297.892 40.2752 298.236 40.752 298.499C41.2278 298.678 41.7316 298.773 42.2401 298.778L48.5682 299.178C49.6403 299.21 50.7059 299.356 51.7467 299.616C52.8941 300.016 54.0111 300.499 55.0889 301.061C58.4938 302.582 62.2694 302.987 65.9488 303.574C66.3033 303.594 66.6417 303.729 66.9119 303.96C67.0588 304.142 67.161 304.357 67.2105 304.586C67.7276 306.521 67.7636 308.554 67.3154 310.506C66.8671 312.458 65.9483 314.272 64.6388 315.788Z" fill="#A8A8A8"></path><path opacity="0.1" d="M31.2358 291.978C28.7807 294.322 26.6508 296.985 24.9029 299.895C22.0982 304.698 20.3359 310.037 19.7307 315.566C19.5012 317.583 19.4834 319.618 19.6777 321.639C18.3328 321.268 17.1173 320.531 16.1669 319.51C15.0304 318.224 14.4862 316.52 14.1731 314.834C12.5887 306.194 16.9326 296.784 24.5369 292.387C25.5291 291.746 26.657 291.345 27.831 291.217C28.9823 291.212 30.1203 291.462 31.1636 291.949L31.2358 291.978Z" fill="black"></path><path d="M153.795 303.96C157.335 303.863 161.308 303.685 163.909 306.069C166.389 308.323 166.716 312.041 166.88 315.388L167.068 319.275C167.126 320.459 167.174 321.683 166.697 322.781C165.85 324.707 163.523 325.637 161.4 325.526C159.276 325.415 157.325 324.486 155.385 323.648C150.116 321.378 144.629 319.649 139.01 318.49C139.194 315.802 139.499 313.128 139.926 310.466C140.219 308.622 140.267 305.534 141.5 304.003C142.805 302.385 144.505 303.261 146.278 303.56C148.764 303.939 151.282 304.073 153.795 303.96Z" fill="#FDD6D6"></path><path d="M60.2516 264.908C60.2516 265.389 59.4955 264.908 59.428 264.392C58.8983 260.496 55.8065 257.284 52.2042 255.724C48.6019 254.163 44.4988 254.082 40.5979 254.452C34.6984 255.011 28.0766 257.27 25.9191 262.784C25.4086 264.075 25.1774 265.471 24.5513 266.709C23.8579 268.067 22.7261 269.15 21.9748 270.47C20.6794 272.753 20.6264 275.551 21.0935 278.132C22.3505 285.019 27.0604 290.909 32.7673 294.988C38.4741 299.067 45.1441 301.504 51.7949 303.7C69.3809 309.5 87.4239 313.809 105.733 316.582C108.699 317.03 111.695 317.444 114.536 318.398C117.079 319.25 119.458 320.526 121.943 321.528C127.722 323.849 133.94 324.678 140.099 325.492C141.149 325.626 142.353 325.723 143.128 325.01C144.13 324.081 143.798 322.462 143.514 321.128C142.468 316.056 143.345 310.776 145.974 306.315C147.005 304.581 148.344 302.804 148.151 300.796C147.92 298.455 145.589 296.799 143.268 296.423C140.947 296.047 138.587 296.601 136.256 296.904C135.452 297.01 134.575 297.078 133.872 296.668C133.526 296.435 133.212 296.156 132.938 295.84C131.332 294.291 129.277 293.29 127.067 292.982C124.858 292.673 122.607 293.072 120.638 294.121C119.776 294.602 118.471 293.529 117.575 293.124L107.447 288.539C95.8121 283.275 84.1191 277.988 71.8097 274.655C70.8276 274.462 69.8941 274.074 69.0646 273.514C68.453 273.032 68.0148 272.377 67.4513 271.843C66.2233 270.682 64.5136 270.22 63.04 269.396C61.5663 268.573 59.9144 266.56 60.2516 264.908Z" fill="#464353"></path><path d="M216.387 327.847C214.769 330.847 211.629 332.715 208.258 333.486C207.412 333.677 206.552 333.799 205.686 333.852C201.424 334.117 197.215 332.937 193.107 331.771L187.531 330.202C186.572 329.9 185.589 329.681 184.593 329.547C183.237 329.456 181.875 329.503 180.528 329.686C173.937 330.299 167.293 330.001 160.783 328.8C160.239 328.741 159.715 328.555 159.257 328.256C158.854 327.862 158.497 327.424 158.192 326.951C156.675 325.126 155.043 324.061 156.839 321.653C157.874 320.257 159.796 319.558 160.6 317.955C161.404 316.351 160.889 314.073 160.412 312.416C159.762 310.129 157.624 309.142 156.858 307.042C156.285 305.457 157.248 303.618 158.698 302.756C160.147 301.894 161.939 301.826 163.61 302.048C165.281 302.269 166.919 302.741 168.599 302.871C173.54 303.266 178.592 300.719 183.336 302.154C184.381 302.472 185.368 302.977 186.428 303.257C188.493 303.719 190.651 303.532 192.607 302.722C193.3 302.462 193.979 302.149 194.653 301.841C195.954 301.164 197.338 300.663 198.771 300.353C203.399 299.558 207.69 302.761 211.181 305.886C212.38 306.881 213.441 308.031 214.336 309.305C215.299 310.808 215.809 312.556 216.262 314.28C217.538 318.735 218.593 323.753 216.387 327.847Z" fill="#A8A8A8"></path><path opacity="0.1" d="M216.387 327.847C214.769 330.847 211.629 332.716 208.258 333.486C209.57 330.938 210.161 328.081 209.968 325.222C209.679 320.642 207.666 316.327 205.099 312.522C203.52 310.18 201.724 307.992 199.734 305.987C198.203 304.446 196.32 303.223 194.673 301.812C195.973 301.135 197.358 300.634 198.79 300.324C203.418 299.529 207.709 302.732 211.201 305.857C212.399 306.852 213.46 308.002 214.355 309.276C215.318 310.779 215.829 312.527 216.281 314.251C217.538 318.735 218.593 323.753 216.387 327.847Z" fill="black"></path><path d="M39.5432 179.276C39.074 179.767 38.7102 180.349 38.474 180.986C34.5812 189.759 32.2818 199.156 31.6836 208.735C31.6941 209.202 31.5864 209.664 31.3706 210.079C31.1578 210.354 30.9208 210.611 30.6627 210.844C30.4282 211.122 30.2532 211.445 30.1486 211.794C30.044 212.142 30.0119 212.508 30.0543 212.869C30.0967 213.23 30.2128 213.579 30.3953 213.893C30.5778 214.208 30.8229 214.481 31.1153 214.697C31.91 213.199 33.8122 212.713 35.5026 212.583C43.5981 211.943 51.5058 215.709 59.6254 215.424C59.0523 213.445 58.2288 211.543 57.7617 209.539C55.6957 200.644 60.8487 190.96 57.6894 182.392C57.0586 180.678 56.0039 178.992 54.3424 178.241C53.6545 177.963 52.9345 177.772 52.1993 177.673C50.1478 177.302 46.0639 175.717 44.0797 176.353C43.3477 176.589 43.0588 177.278 42.452 177.692C41.5321 178.284 40.3089 178.501 39.5432 179.276Z" fill="#656691"></path><path d="M160.176 196.806H60.4586C58.3388 196.806 56.6204 198.525 56.6204 200.644V261.354C56.6204 263.473 58.3388 265.192 60.4586 265.192H160.176C162.296 265.192 164.015 263.473 164.015 261.354V200.644C164.015 198.525 162.296 196.806 160.176 196.806Z" fill="#DADADA"></path><path d="M110.077 233.889C111.673 233.889 112.966 232.595 112.966 230.999C112.966 229.403 111.673 228.109 110.077 228.109C108.481 228.109 107.187 229.403 107.187 230.999C107.187 232.595 108.481 233.889 110.077 233.889Z" fill="white"></path><path d="M70.9332 94.1507C69.315 95.3209 68.2074 97.0017 67.0805 98.615C65.0048 101.596 62.6547 104.572 59.3365 106.234C58.0796 106.865 56.6444 107.341 55.8113 108.439C55.3168 109.182 54.9958 110.026 54.8722 110.91C54.2366 114.017 53.9043 117.178 53.8801 120.349C53.8801 121.929 53.9475 123.556 54.6459 124.992C55.3056 126.34 56.4952 127.481 56.7408 128.95C56.9286 130.096 56.5048 131.238 56.3555 132.389C56.2062 133.54 56.4663 134.903 57.5306 135.452C58.104 135.667 58.7029 135.808 59.3124 135.871C62.515 136.583 63.589 140.34 64.0754 143.446C65.1638 143.383 65.655 142.136 65.8813 141.12L69.2187 126.282C69.5799 124.674 70.1819 122.81 71.7856 122.247C72.8595 121.876 74.0346 122.222 75.1567 122.319C79.5633 122.68 83.2908 119.275 87.601 118.336C88.9807 118.058 90.3912 117.964 91.7956 118.057C95.1956 118.225 99.1495 119.622 99.8719 122.796C99.9923 123.311 100.065 123.927 100.546 124.183C101.028 124.438 101.533 124.221 102.039 124.183C104.197 123.966 105.468 126.393 106.089 128.377L108.353 135.601C108.69 136.694 109.258 137.98 110.443 138.12C111.536 138.255 112.465 137.219 112.629 136.193C112.793 135.168 112.437 134.103 112.201 133.073C111.136 128.329 112.764 123.475 113.756 118.721C114.748 113.968 114.926 108.507 111.599 104.847C110.39 103.522 108.801 102.535 107.674 101.139C106.624 99.8286 106.031 98.2201 104.943 96.9343C101.933 93.385 94.2132 90.6447 89.4792 90.192C84.0709 89.6045 75.306 90.977 70.9332 94.1507Z" fill="#3F3D56"></path><g opacity="0.1"><path opacity="0.1" d="M110.462 134.749C109.277 134.604 108.709 133.304 108.372 132.23C107.618 129.819 106.863 127.411 106.109 125.006C105.487 123.017 104.216 120.59 102.058 120.811C101.553 120.864 101.009 121.062 100.566 120.811C100.122 120.561 100.012 119.94 99.8913 119.424C99.1689 116.246 95.2151 114.854 91.8151 114.686C90.4109 114.593 89.0006 114.686 87.6204 114.96C83.3102 115.923 79.5827 119.294 75.1762 118.943C74.0396 118.851 72.8645 118.505 71.805 118.875C70.1821 119.434 69.5994 121.283 69.2382 122.911L65.9008 137.744C65.6744 138.765 65.1832 140.012 64.0948 140.07C63.6132 136.969 62.5344 133.212 59.3319 132.5C58.7232 132.433 58.1248 132.292 57.55 132.081C57.131 131.852 56.803 131.486 56.6205 131.045C56.5339 131.493 56.4327 131.941 56.3749 132.389C56.2304 133.535 56.4857 134.903 57.55 135.452C58.1235 135.667 58.7224 135.808 59.3319 135.871C62.5344 136.583 63.6084 140.34 64.0948 143.446C65.1832 143.383 65.6744 142.136 65.9008 141.12L69.2382 126.282C69.5994 124.674 70.2014 122.81 71.805 122.247C72.879 121.876 74.0541 122.223 75.1762 122.319C79.5827 122.68 83.3102 119.275 87.6204 118.336C89.0001 118.058 90.4107 117.964 91.8151 118.057C95.2151 118.225 99.1689 119.622 99.8913 122.796C100.012 123.311 100.084 123.927 100.566 124.183C101.047 124.438 101.553 124.221 102.058 124.183C104.216 123.966 105.487 126.393 106.109 128.377C106.86 130.788 107.614 133.196 108.372 135.601C108.709 136.694 109.277 137.98 110.462 138.12C111.555 138.255 112.485 137.219 112.649 136.193C112.723 135.33 112.624 134.461 112.36 133.636C112.188 133.988 111.916 134.281 111.579 134.479C111.241 134.676 110.853 134.77 110.462 134.749Z" fill="black"></path><path opacity="0.1" d="M56.7456 125.579C56.5 124.11 55.3009 122.969 54.6507 121.62C54.2327 120.711 53.9909 119.731 53.938 118.731C53.938 119.27 53.8898 119.81 53.885 120.354C53.885 121.934 53.9524 123.561 54.6507 124.996C55.1853 126.09 56.0666 127.053 56.5096 128.165C56.7432 127.324 56.8232 126.448 56.7456 125.579Z" fill="black"></path><path opacity="0.1" d="M113.776 115.331C112.899 119.53 111.531 123.807 111.955 128.016C112.23 124.91 113.135 121.784 113.776 118.702C114.31 116.362 114.498 113.955 114.334 111.56C114.23 112.828 114.043 114.087 113.776 115.331Z" fill="black"></path></g><g opacity="0.8"><path opacity="0.8" d="M158.943 139.897H459.965" stroke="#3F3D56" stroke-width="3" stroke-miterlimit="10"></path><path opacity="0.8" d="M185.686 139.892C185.686 139.892 200.081 141.89 192.626 126.446C185.171 111.001 212.852 113.925 212.852 113.925" stroke="#3F3D56" stroke-width="3" stroke-miterlimit="10"></path><path opacity="0.8" d="M281.556 139.892C281.556 139.892 295.951 137.898 288.496 153.343C281.041 168.787 308.722 165.864 308.722 165.864" stroke="#3F3D56" stroke-width="3" stroke-miterlimit="10"></path><path opacity="0.8" d="M419.594 139.892C419.594 139.892 405.194 137.898 412.654 153.343C420.114 168.787 392.427 165.864 392.427 165.864" stroke="#3F3D56" stroke-width="3" stroke-miterlimit="10"></path><path opacity="0.8" d="M392.427 165.859H312.999" stroke="#3F3D56" stroke-width="3" stroke-miterlimit="10"></path><path opacity="0.8" d="M158.944 148.686C163.798 148.686 167.733 144.751 167.733 139.897C167.733 135.043 163.798 131.108 158.944 131.108C154.09 131.108 150.155 135.043 150.155 139.897C150.155 144.751 154.09 148.686 158.944 148.686Z" fill="#18A558"></path><path opacity="0.8" d="M213.002 122.588C217.856 122.588 221.791 118.654 221.791 113.799C221.791 108.945 217.856 105.011 213.002 105.011C208.148 105.011 204.213 108.945 204.213 113.799C204.213 118.654 208.148 122.588 213.002 122.588Z" fill="#FF4545"></path><path opacity="0.8" d="M213.002 148.686C217.856 148.686 221.791 144.751 221.791 139.897C221.791 135.043 217.856 131.108 213.002 131.108C208.148 131.108 204.213 135.043 204.213 139.897C204.213 144.751 208.148 148.686 213.002 148.686Z" fill="#18A558"></path><path opacity="0.8" d="M247.888 148.686C252.742 148.686 256.677 144.751 256.677 139.897C256.677 135.043 252.742 131.108 247.888 131.108C243.034 131.108 239.099 135.043 239.099 139.897C239.099 144.751 243.034 148.686 247.888 148.686Z" fill="#18A558"></path><path opacity="0.8" d="M308.867 174.518C313.721 174.518 317.656 170.583 317.656 165.729C317.656 160.875 313.721 156.94 308.867 156.94C304.013 156.94 300.078 160.875 300.078 165.729C300.078 170.583 304.013 174.518 308.867 174.518Z" fill="#4D51F7"></path><path opacity="0.8" d="M354.945 174.518C359.799 174.518 363.734 170.583 363.734 165.729C363.734 160.875 359.799 156.94 354.945 156.94C350.091 156.94 346.156 160.875 346.156 165.729C346.156 170.583 350.091 174.518 354.945 174.518Z" fill="#4D51F7"></path><path opacity="0.8" d="M352.542 148.686C357.396 148.686 361.331 144.751 361.331 139.897C361.331 135.043 357.396 131.108 352.542 131.108C347.688 131.108 343.753 135.043 343.753 139.897C343.753 144.751 347.688 148.686 352.542 148.686Z" fill="#18A558"></path><path opacity="0.8" d="M457.741 148.686C462.595 148.686 466.53 144.751 466.53 139.897C466.53 135.043 462.595 131.108 457.741 131.108C452.887 131.108 448.952 135.043 448.952 139.897C448.952 144.751 452.887 148.686 457.741 148.686Z" fill="#18A558"></path><path opacity="0.8" d="M414.706 148.686C419.56 148.686 423.495 144.751 423.495 139.897C423.495 135.043 419.56 131.108 414.706 131.108C409.852 131.108 405.917 135.043 405.917 139.897C405.917 144.751 409.852 148.686 414.706 148.686Z" fill="#18A558"></path><path opacity="0.8" d="M173.666 59.0717H144.178V79.3948H173.666V59.0717Z" fill="#18A558"></path><path opacity="0.8" d="M227.854 59.0717H198.366V79.3948H227.854V59.0717Z" fill="#FF4545"></path><path opacity="0.8" d="M323.488 59.0717H294V79.3948H323.488V59.0717Z" fill="#4D51F7"></path></g><g opacity="0.1"><path opacity="0.1" d="M41.5853 144.168C41.5853 144.168 5.57689 129.027 0.857323 156.348C0.857323 156.348 -1.6036 160.605 1.8205 164.121C1.8205 164.121 2.55733 162.233 6.0344 164.183C7.27631 164.87 8.5955 165.407 9.96417 165.782C11.8126 166.292 13.7766 166.187 15.5602 165.484C15.5602 165.484 27.4025 164.843 37.3617 149.35C37.3617 149.35 41.6334 146.711 41.8453 145.719L34.7082 146.201C34.7082 146.201 35.2572 151.426 32.3003 154.561C32.3003 154.561 34.9201 146.451 33.6631 146.225C33.4079 146.177 29.8923 146.639 29.8923 146.639C29.8923 146.639 30.8025 155.727 26.0396 160.427C26.0396 160.427 30.4606 151.185 28.539 146.803L23.2705 147.819C23.2705 147.819 24.7152 157.378 19.5044 162.936C19.5044 162.936 23.7906 153.112 22.1339 148.122L17.0917 149.817C17.0917 149.817 18.3053 159.165 13.9469 163.784C13.9469 163.784 17.7515 151.932 15.9599 150.299C15.9599 150.299 11.4234 152.139 10.4554 153.189C10.4554 153.189 11.173 159.931 8.40382 162.363C8.40382 162.363 10.1038 154.176 9.26105 153.839C9.26105 153.839 3.99247 157.807 2.38396 161.231C2.38396 161.231 4.38737 156.001 8.60127 153.044C8.60127 153.044 5.06159 152.447 2.34062 153.925C2.34062 153.925 4.16102 150.453 9.87748 152.1C9.87748 152.1 14.1106 149.167 14.9582 149.211C14.9582 149.211 9.55 146.803 5.64432 147.101C5.64432 147.101 9.83414 144.693 16.2778 148.715L21.3104 146.899C21.3104 146.899 14.3274 143.321 10.831 143.335C10.831 143.335 15.4832 141.534 22.6155 146.543L27.7685 145.493C27.7685 145.493 21.9894 141.953 18.0934 141.13C18.0934 141.13 22.7648 140.388 29.2566 145.247L32.777 144.953C32.777 144.953 28.515 142.44 27.2243 141.828C25.9336 141.216 25.9914 140.821 25.9914 140.821C29.0543 141.346 31.9116 142.71 34.2459 144.761C34.2459 144.761 41.5564 144.616 41.5853 144.168Z" fill="#536DFE"></path></g><g opacity="0.1"><path opacity="0.1" d="M40.256 117.026C40.256 117.026 27.5036 87.5191 9.13095 101.052C9.13095 101.052 5.24934 102.179 5.27824 106.205C5.27824 106.205 6.79043 105.502 7.74879 108.646C8.1002 109.762 8.58532 110.831 9.19356 111.83C9.99745 113.187 11.2238 114.245 12.6851 114.84C12.6851 114.84 20.0871 121.206 34.8382 117.676C34.8382 117.676 38.8835 118.538 39.5722 118.076L35.0645 114.286C35.0645 114.286 32.411 117.705 28.8568 117.869C28.8568 117.869 35.0356 114.546 34.4192 113.694C34.294 113.52 31.939 111.796 31.939 111.796C31.939 111.796 27.3061 117.71 21.8256 117.801C21.8256 117.801 29.7189 114.825 31.0721 111.131L27.3639 108.724C27.3639 108.724 22.6877 115.23 16.427 115.567C16.427 115.567 24.5707 112.172 26.4296 108.261L22.4661 106.397C22.4661 106.397 17.8622 112.658 12.6562 112.894C12.6562 112.894 21.6715 108.02 21.5319 106.031C21.5319 106.031 17.7899 104.539 16.6004 104.625C16.6004 104.625 13.1956 109.032 10.1567 108.907C10.1567 108.907 15.8347 105.01 15.5264 104.331C15.5264 104.331 10.1327 103.686 7.22867 104.813C7.22867 104.813 11.3992 102.848 15.5842 103.493C15.5842 103.493 13.8216 101.119 11.3703 100.459C11.3703 100.459 14.4332 99.4337 16.8893 103.662C16.8893 103.662 21.0695 104.336 21.5608 104.837C21.5608 104.837 19.7259 100.315 17.2265 98.2779C17.2265 98.2779 21.0792 99.241 22.6203 105.295L26.6463 107.081C26.6463 107.081 24.537 100.975 22.4469 98.9954C22.4469 98.9954 26.237 100.575 27.624 107.616L31.284 109.923C31.284 109.923 29.8682 104.529 28.0237 101.818C28.0237 101.818 31.2214 104.042 32.305 110.626L34.5685 112.456C34.5685 112.456 33.4656 108.536 33.0467 107.438C32.6277 106.34 32.8877 106.137 32.8877 106.137C34.409 108.202 35.3246 110.651 35.5317 113.207C35.5317 113.207 39.9815 117.272 40.256 117.026Z" fill="#536DFE"></path></g></g><defs><linearGradient id="paint0_linear" x1="115.615" y1="333.578" x2="115.615" y2="87.3891" gradientUnits="userSpaceOnUse"><stop stop-color="#808080" stop-opacity="0.25"></stop><stop offset="0.54" stop-color="#808080" stop-opacity="0.12"></stop><stop offset="1" stop-color="#808080" stop-opacity="0.1"></stop></linearGradient><clipPath id="clip0"><rect width="500" height="333.891" fill="white"></rect></clipPath></defs></svg> 